<svg width="42" height="42" viewBox="0 0 42 42" fill="none" xmlns="http://www.w3.org/2000/svg">
<path d="M21 27.72C18.4426 27.72 15.99 26.7041 14.1817 24.8958C12.3734 23.0875 11.3575 20.6348 11.3575 18.0775V6.3875C11.3308 6.02632 11.3308 5.66367 11.3575 5.3025C11.3705 5.18955 11.4058 5.08031 11.4613 4.98113C11.5169 4.88195 11.5917 4.79481 11.6812 4.72479C11.7708 4.65476 11.8734 4.60325 11.9831 4.57324C12.0927 4.54323 12.2073 4.53533 12.32 4.55C12.5494 4.57639 12.759 4.69236 12.9032 4.87265C13.0475 5.05294 13.1146 5.28293 13.09 5.5125C13.0721 5.80389 13.0721 6.0961 13.09 6.3875V18.0775C13.2233 20.0753 14.1109 21.9479 15.5731 23.3158C17.0353 24.6837 18.9627 25.4447 20.965 25.4447C22.9673 25.4447 24.8947 24.6837 26.3569 23.3158C27.8191 21.9479 28.7067 20.0753 28.84 18.0775V6.3875C28.8579 6.0961 28.8579 5.80389 28.84 5.5125C28.8121 5.28043 28.8776 5.04681 29.022 4.86302C29.1664 4.67924 29.3779 4.56034 29.61 4.5325C29.8421 4.50465 30.0757 4.57013 30.2595 4.71453C30.4433 4.85893 30.5621 5.07043 30.59 5.3025C30.6167 5.66367 30.6167 6.02632 30.59 6.3875V18.0775C30.59 20.6258 29.5813 23.0705 27.7844 24.8773C25.9874 26.6841 23.5482 27.7061 21 27.72V27.72Z" fill="white"/>
<path d="M30.7125 17.01C30.5508 17.0063 30.3933 16.9578 30.2575 16.87L29.3125 16.31C29.1129 16.1893 28.9695 15.9943 28.9137 15.7679C28.8579 15.5414 28.8943 15.3021 29.015 15.1025C29.1357 14.9029 29.3307 14.7595 29.5571 14.7037C29.7836 14.6479 30.0229 14.6843 30.2225 14.805L30.94 15.2425C36.3475 15.0675 37.38 8.6625 37.5725 6.2825H4.41C4.6025 8.68 5.5825 15.0325 11.06 15.2425L11.7775 14.805C11.8763 14.7452 11.9859 14.7055 12.1001 14.6882C12.2143 14.6708 12.3307 14.676 12.4429 14.7037C12.555 14.7313 12.6606 14.7807 12.7536 14.8492C12.8466 14.9176 12.9252 15.0037 12.985 15.1025C13.0448 15.2013 13.0845 15.3109 13.1018 15.4251C13.1192 15.5393 13.114 15.6557 13.0863 15.7679C13.0587 15.88 13.0093 15.9856 12.9408 16.0786C12.8724 16.1716 12.7863 16.2502 12.6875 16.31L11.7425 16.87C11.6067 16.9578 11.4492 17.0063 11.2875 17.01C4.445 17.01 2.625 9.415 2.625 5.4075C2.625 5.17544 2.71719 4.95288 2.88128 4.78878C3.04538 4.62469 3.26794 4.5325 3.5 4.5325H38.5C38.7321 4.5325 38.9546 4.62469 39.1187 4.78878C39.2828 4.95288 39.375 5.17544 39.375 5.4075C39.375 9.415 37.555 17.01 30.7125 17.01Z" fill="white"/>
<path d="M21 37.4675C20.7679 37.4675 20.5454 37.3753 20.3813 37.2112C20.2172 37.0471 20.125 36.8246 20.125 36.5925V26.845C20.125 26.6129 20.2172 26.3904 20.3813 26.2263C20.5454 26.0622 20.7679 25.97 21 25.97C21.2321 25.97 21.4546 26.0622 21.6187 26.2263C21.7828 26.3904 21.875 26.6129 21.875 26.845V36.5925C21.875 36.8246 21.7828 37.0471 21.6187 37.2112C21.4546 37.3753 21.2321 37.4675 21 37.4675Z" fill="white"/>
<path d="M30.7475 37.4675H13.2475C13.0154 37.4675 12.7929 37.3753 12.6288 37.2112C12.4647 37.0471 12.3725 36.8246 12.3725 36.5925C12.3725 36.3604 12.4647 36.1379 12.6288 35.9738C12.7929 35.8097 13.0154 35.7175 13.2475 35.7175H30.7475C30.9796 35.7175 31.2021 35.8097 31.3662 35.9738C31.5303 36.1379 31.6225 36.3604 31.6225 36.5925C31.6225 36.8246 31.5303 37.0471 31.3662 37.2112C31.2021 37.3753 30.9796 37.4675 30.7475 37.4675Z" fill="white"/>
</svg>
